<?xml version="1.0" encoding="utf-8"?>
<!-- Svg Vector Icons : http://www.onlinewebfonts.com/icon -->
<!DOCTYPE svg PUBLIC "-//W3C//DTD SVG 1.1//EN" "http://www.w3.org/Graphics/SVG/1.1/DTD/svg11.dtd">
<svg version="1.1" xmlns="http://www.w3.org/2000/svg" xmlns:xlink="http://www.w3.org/1999/xlink" x="0px" y="0px" viewBox="0 0 1000 1000" enable-background="new 0 0 1000 1000" xml:space="preserve">
<metadata> Svg Vector Icons : http://www.onlinewebfonts.com/icon </metadata>
<g><path d="M107.4,678.9L107.4,678.9L500,452.2l392.6,226.7c31.1,17.9,70.7,7.3,88.7-23.7c17.9-31.1,7.3-70.7-23.7-88.7l0,0L532.6,321.1c-9.9-5.7-20.6-8.5-31.4-8.7c-0.5,0-1,0-1.5,0c-0.4,0-0.8,0-1.2,0c-10.7,0.2-21.5,3-31.4,8.7L42.4,566.4c-31.1,17.9-41.6,57.6-23.7,88.7C36.7,686.1,76.4,696.8,107.4,678.9z"/></g>
</svg>